<?xml version="1.0" standalone="no"?>
<!DOCTYPE svg PUBLIC "-//W3C//DTD SVG 1.1//EN" "http://www.w3.org/Graphics/SVG/1.1/DTD/svg11.dtd" >
<svg xmlns="http://www.w3.org/2000/svg" xmlns:xlink="http://www.w3.org/1999/xlink" version="1.1">
<metadata></metadata>
<defs>
<font id="product_sansregular" horiz-adv-x="1110" >
<font-face units-per-em="2048" ascent="1638" descent="-410" />
<missing-glyph horiz-adv-x="450" />
<glyph horiz-adv-x="0" />
<glyph unicode="&#xd;" horiz-adv-x="0" />
<glyph horiz-adv-x="0" />
<glyph horiz-adv-x="0" />
<glyph unicode=" "  horiz-adv-x="450" />
<glyph unicode="&#x09;" horiz-adv-x="450" />
<glyph unicode="&#xa0;" horiz-adv-x="450" />
<glyph unicode="!" horiz-adv-x="475" d="M98 127q0 59 41 99t99 40q59 0 99 -40t40 -99q0 -57 -40 -98t-99 -41q-57 0 -98.5 41t-41.5 98zM143 1004v462h189v-462l-21 -549h-147z" />
<glyph unicode="&#x22;" horiz-adv-x="655" d="M90 1004v462h172v-462h-172zM393 1004v462h172v-462h-172z" />
<glyph unicode="#" horiz-adv-x="1294" d="M47 416l27 155h250l41 277h-256l24 156h254l59 397h164l-59 -397h278l60 397h164l-60 -397h252l-24 -156h-250l-41 -277h256l-25 -155h-256l-61 -416h-164l61 416h-278l-62 -416h-163l61 416h-252zM487 571h279l41 277h-279z" />
<glyph unicode="$" horiz-adv-x="1091" d="M49 346l168 68q25 -98 95.5 -169t164.5 -91v491q-205 82 -291 181.5t-86 232.5q0 145 104.5 250.5t272.5 122.5v174h156v-181q127 -20 220 -96t126 -178l-168 -72q-37 127 -178 162v-461q209 -88 293 -182t84 -225q0 -162 -101.5 -267.5t-275.5 -132.5v-178h-156v176 q-156 20 -272.5 121t-155.5 254zM289 1059q0 -123 188 -215v403q-86 -14 -137 -65t-51 -123zM633 158q188 43 188 211q0 127 -188 213v-424z" />
<glyph unicode="%" horiz-adv-x="1667" d="M66 1083q0 143 102 246q104 104 248 105q143 0 246 -105q104 -103 104 -246t-104 -247q-102 -102 -246 -103q-141 0 -248 103q-102 106 -102 247zM217 1083q0 -92 57 -151q57 -61 142 -62q86 0 142 60.5t56 152.5t-56 152.5t-142 60.5q-84 0 -142 -61q-57 -59 -57 -152z M319 59l912 1358l115 -78l-910 -1355zM901 317q0 143 103 246q104 104 247 105q143 0 246 -105q105 -103 105 -246t-105 -247q-102 -102 -246 -103q-141 0 -247 103q-102 106 -103 247zM1053 317q0 -92 57 -151q57 -61 141 -62q86 0 142.5 60.5t56.5 152.5t-56.5 152.5 t-142.5 60.5q-84 0 -141 -61q-57 -59 -57 -152z" />
<glyph unicode="&#x26;" horiz-adv-x="1265" d="M74 485q0 129 68.5 245t185.5 188q-106 137 -107 243q0 139 104.5 238.5t249.5 99.5q117 0 203 -66.5t125 -181.5l-162 -86q-57 154 -166 154q-72 0 -117.5 -43t-45.5 -115q0 -70 47 -131l485 -635l131 219l148 -90l-170 -270l137 -180l-141 -107l-101 133 q-150 -133 -340 -133q-223 0 -378.5 149.5t-155.5 368.5zM246 485q0 -147 104.5 -246.5t257.5 -99.5q145 0 236 99l-412 542q-86 -47 -136 -127t-50 -168z" />
<glyph unicode="'" horiz-adv-x="352" d="M90 1004v462h172v-462h-172z" />
<glyph unicode="(" horiz-adv-x="675" d="M131 659q0 246 96 494q96 244 269 444l139 -98q-141 -168 -229 -397q-86 -225 -87 -443q0 -219 87 -442q88 -229 229 -397l-139 -99q-170 199 -269 443q-96 252 -96 495z" />
<glyph unicode=")" horiz-adv-x="675" d="M41 -180q141 168 229 397q86 223 86 442q0 217 -86 443q-88 229 -229 397l139 98q86 -98 152.5 -208.5t113.5 -235.5q98 -246 99 -494q0 -248 -99 -495q-94 -242 -266 -443z" />
<glyph unicode="*" horiz-adv-x="892" d="M82 1151l49 149l227 -81l11 6v241h155v-241l11 -6l227 81l49 -149l-229 -78l-4 -14l157 -213l-127 -92l-155 213h-13l-155 -213l-127 92l157 213l-4 14z" />
<glyph unicode="+" horiz-adv-x="1126" d="M115 477v156h370v371h156v-371h371v-156h-371v-371h-156v371h-370z" />
<glyph unicode="," horiz-adv-x="475" d="M90 -172l111 172q-43 8 -73 43t-30 84q0 59 41 99t99 40q59 0 99 -40t40 -99q0 -55 -41 -121l-158 -235z" />
<glyph unicode="-" horiz-adv-x="884" d="M115 557v156h655v-156h-655z" />
<glyph unicode="." horiz-adv-x="475" d="M98 127q0 59 41 99t99 40q59 0 99 -40t40 -99q0 -57 -40 -98t-99 -41q-57 0 -98.5 41t-41.5 98z" />
<glyph unicode="/" horiz-adv-x="894" d="M55 0l609 1466h176l-609 -1466h-176z" />
<glyph unicode="0" horiz-adv-x="1306" d="M90 700q0 319 158 527q158 207 405 207q248 0 406 -209q158 -207 158 -525q0 -315 -158 -526q-158 -207 -406 -207t-405 207q-158 211 -158 526zM283 700q0 -242 102 -399q100 -154 268 -154t269 156q102 157 102 397q0 242 -102 398q-100 156 -269 155q-168 0 -268 -155 q-102 -156 -102 -398z" />
<glyph unicode="1" horiz-adv-x="786" d="M82 1208l412 193h120v-1401h-188v1167l-272 -118z" />
<glyph unicode="2" horiz-adv-x="1064" d="M82 0v188l362 367q182 186 252 279.5t70 195.5q0 92 -71.5 157.5t-184.5 65.5q-96 0 -166 -57t-90 -139l-172 69q41 129 157.5 218.5t274.5 89.5q190 0 317 -117t127 -287q0 -203 -223 -438l-409 -412h649v-180h-893z" />
<glyph unicode="3" horiz-adv-x="1087" d="M74 317l172 72q33 -117 107.5 -179.5t178.5 -62.5q115 0 199 72q82 74 82 178t-86 176q-84 72 -203 72h-121v176h107q113 0 184.5 62.5t71.5 163.5q0 92 -67.5 149t-178.5 57q-178 0 -244 -182l-174 74q47 129 158 209t260 80q186 0 314 -111q125 -106 124 -276 q0 -203 -188 -302v-8q111 -47 173.5 -137t62.5 -203q0 -184 -138 -307q-135 -123 -336 -123q-158 0 -284 94q-129 98 -174 256z" />
<glyph unicode="4" horiz-adv-x="1206" d="M82 295v143l649 963h205v-930h180v-176h-180v-295h-188v295h-666zM295 471h453v653h-9z" />
<glyph unicode="5" horiz-adv-x="1136" d="M82 346l168 68q31 -123 111.5 -195t189.5 -72q131 0 214 81t83 208q0 129 -83 211t-212 82q-150 0 -236 -121l-190 82l90 711h735v-180h-577l-51 -402l8 -2q104 84 254 84q188 0 320 -133t132 -330q0 -201 -139 -336t-344 -135q-164 0 -297 102.5t-176 276.5z" />
<glyph unicode="6" horiz-adv-x="1124" d="M82 436q0 170 137 387l408 611l151 -105l-346 -479l4 -4q64 43 168 43q170 0 303 -135q135 -133 135 -318q0 -188 -143 -330q-145 -139 -336 -139q-203 0 -342 139t-139 330zM272 434q0 -121 84 -205q84 -82 207 -82t205 82q84 84 84 205q0 119 -86 203q-84 84 -203 84 q-117 0 -205 -84q-86 -84 -86 -203z" />
<glyph unicode="7" horiz-adv-x="1071" d="M82 1221l4 180h903v-193l-680 -1241l-168 86l650 1168h-709z" />
<glyph unicode="8" horiz-adv-x="1114" d="M82 387q0 111 59.5 202t169.5 144v8q-82 53 -132 131t-50 164q0 170 121 285q119 113 307 113t307 -113q121 -115 121 -285q0 -86 -50 -163.5t-132 -131.5v-8q111 -53 170 -144t59 -202q0 -180 -137 -299q-139 -121 -338 -121t-338 121q-137 119 -137 299zM274 397 q0 -55 21.5 -100t59.5 -79t89.5 -52.5t112.5 -18.5t112.5 18.5t89.5 52.5t59.5 79t21.5 100q0 106 -82 176q-82 72 -201 72t-203 -72q-80 -72 -80 -176zM322 1040q0 -98 65.5 -158.5t169.5 -60.5t170 60.5t66 158.5t-65.5 155.5t-170.5 57.5q-104 0 -169.5 -57.5 t-65.5 -155.5z" />
<glyph unicode="9" horiz-adv-x="1124" d="M82 965q0 190 143 327q143 141 336 142q203 0 342 -140q139 -139 139 -329q0 -170 -137 -387l-407 -611l-152 105l346 479l-4 4q-66 -43 -168 -43q-168 0 -305 133q-133 137 -133 320zM272 967q0 -119 84 -203q88 -84 205 -84t205 84q86 82 86 203q0 119 -86 202 q-84 84 -205 84t-205 -84t-84 -202z" />
<glyph unicode=":" horiz-adv-x="475" d="M98 127q0 59 41 99t99 40q59 0 99 -40t40 -99q0 -57 -40 -98t-99 -41q-57 0 -98.5 41t-41.5 98zM98 877q0 59 41 99t99 40q59 0 99 -40t40 -99q0 -57 -40 -98.5t-99 -41.5q-57 0 -98.5 41t-41.5 99z" />
<glyph unicode=";" horiz-adv-x="475" d="M90 -133l111 172q-43 8 -73 43t-30 84q0 59 41 99t99 40q59 0 99 -40t40 -99q0 -55 -41 -121l-158 -235zM98 877q0 59 41 99t99 40q59 0 99 -40t40 -99q0 -57 -40 -98.5t-99 -41.5q-57 0 -98.5 41t-41.5 99z" />
<glyph unicode="&#x3c;" horiz-adv-x="1036" d="M115 485v140l798 379v-173l-602 -272v-8l602 -272v-173z" />
<glyph unicode="=" horiz-adv-x="1150" d="M115 381v156h921v-156h-921zM115 770v156h921v-156h-921z" />
<glyph unicode="&#x3e;" horiz-adv-x="1036" d="M123 106v173l602 272v8l-602 272v173l799 -379v-140z" />
<glyph unicode="?" horiz-adv-x="1009" d="M74 1196q49 135 159.5 219t258.5 84q184 0 301.5 -109.5t117.5 -279.5q0 -86 -43 -165t-161.5 -187.5t-120.5 -214.5v-88h-193v96q0 84 34 149.5t129 153.5t129 139t34 117q0 96 -61.5 152.5t-165.5 56.5q-178 0 -242 -197zM350 127q0 59 41 99t98 40q59 0 99.5 -40 t40.5 -99q0 -57 -40 -98t-100 -41q-57 0 -98 41t-41 98z" />
<glyph unicode="@" horiz-adv-x="1777" d="M90 625q0 102 25.5 201.5t79.5 191.5q53 92 127.5 165.5t166 124t193.5 78t211 27.5q217 0 399 -104q184 -104 289 -289q107 -182 107 -397q0 -197 -82 -311.5t-226 -114.5q-154 0 -229 149q-100 -150 -287 -149q-172 0 -284 118q-113 119 -113 299q0 178 113 297 q115 121 276 121q158 0 262 -121h8v93h148v-510q0 -164 121 -164q145 0 145 293q0 266 -188 454t-459 189q-270 0 -459 -189q-188 -188 -188 -454q0 -268 188 -457q186 -186 459 -186q147 0 260 57l57 -139q-147 -66 -317 -66q-219 0 -406 105q-182 104 -290 288 q-53 94 -80 194.5t-27 205.5zM631 614q0 -57 18.5 -105t52 -83t78.5 -54.5t99 -19.5q53 0 98 19.5t79 53.5t52 82t18 107q0 57 -18 106.5t-52 83.5t-79 53.5t-98 19.5t-98.5 -19.5t-79 -54.5t-52 -83.5t-18.5 -105.5z" />
<glyph unicode="A" horiz-adv-x="1368" d="M25 0l553 1466h213l552 -1466h-208l-142 397h-616l-144 -397h-208zM440 573h488l-240 662h-8z" />
<glyph unicode="B" horiz-adv-x="1216" d="M147 0v1466h531q174 0 299 -114q125 -113 125 -285q0 -217 -199 -305v-8q113 -37 180.5 -128t67.5 -208q0 -180 -131 -299q-127 -119 -313 -119h-560zM336 180h379q102 0 174 72q69 71 69 167q0 99 -71 171q-72 72 -180 72h-371v-482zM336 838h342q100 0 168 67 q67 69 67 155q0 89 -65 159q-65 67 -159 67h-3h-350v-448z" />
<glyph unicode="C" horiz-adv-x="1492" d="M76 733q0 328 217 545q217 221 545 221q332 0 538 -239l-135 -132q-158 190 -403 191q-244 0 -408 -164q-162 -162 -162 -422t162 -422q164 -164 408 -164q256 0 444 215l137 -133q-104 -125 -255.5 -193.5t-325.5 -68.5q-326 0 -545 219q-217 219 -217 547z" />
<glyph unicode="D" horiz-adv-x="1415" d="M147 0v1466h449q336 0 539.5 -202.5t203.5 -530.5q0 -330 -203.5 -531.5t-539.5 -201.5h-449zM336 180h260q256 0 403.5 146.5t147.5 406.5q0 258 -147.5 405.5t-403.5 147.5h-260v-1106z" />
<glyph unicode="E" d="M147 0v1466h857v-180h-668v-465h602v-176h-602v-465h668v-180h-857z" />
<glyph unicode="F" horiz-adv-x="1069" d="M147 0v1466h857v-180h-668v-481h602v-176h-602v-629h-189z" />
<glyph unicode="G" horiz-adv-x="1640" d="M76 733q0 324 221 545t541 221q162 0 305 -57.5t235 -161.5l-135 -135q-68 82 -175 128t-230 46q-240 0 -406 -166q-164 -168 -164 -420t164 -420q166 -166 406 -166q219 0 364 123t168 338h-532v176h710q11 -57 11 -110q0 -307 -183 -490q-205 -217 -538 -217 q-319 0 -541 221q-221 221 -221 545z" />
<glyph unicode="H" horiz-adv-x="1404" d="M147 0v1466h189v-628h733v628h188v-1466h-188v662h-733v-662h-189z" />
<glyph unicode="I" horiz-adv-x="483" d="M147 0v1466h189v-1466h-189z" />
<glyph unicode="J" horiz-adv-x="1073" d="M49 307l178 74q70 -233 279 -234q115 0 185.5 81t70.5 210v1028h188v-1011q0 -227 -119.5 -357.5t-324.5 -130.5q-166 0 -287 90t-170 250z" />
<glyph unicode="K" horiz-adv-x="1273" d="M147 0v1466h189v-755h8l645 755h244v-8l-545 -629l582 -821v-8h-232l-477 684l-225 -260v-424h-189z" />
<glyph unicode="L" horiz-adv-x="1019" d="M147 0v1466h189v-1286h635v-180h-824z" />
<glyph unicode="M" horiz-adv-x="1699" d="M147 0v1466h189l510 -893h8l510 893h188v-1466h-188v870l8 246h-8l-459 -805h-110l-459 805h-8l8 -246v-870h-189z" />
<glyph unicode="N" horiz-adv-x="1425" d="M147 0v1466h230l713 -1140h8l-8 282v858h188v-1466h-197l-745 1196h-8l8 -283v-913h-189z" />
<glyph unicode="O" horiz-adv-x="1658" d="M76 733q0 326 217 545q217 221 536 221t537 -223q217 -219 217 -543q0 -326 -217 -545q-219 -221 -537 -221q-319 0 -536 221q-217 219 -217 545zM268 733q0 -254 160 -420q162 -166 401 -166q240 0 400 166q162 164 162 420t-162 420q-160 166 -400 166t-401 -166 q-160 -166 -160 -420z" />
<glyph unicode="P" horiz-adv-x="1155" d="M147 0v1466h500q190 0 324 -127q135 -127 135 -309q0 -186 -135 -311q-131 -125 -324 -125h-311v-594h-189zM336 774h315q113 0 187 76q75 75 75 177q0 105 -75 181q-74 78 -187 78h-315v-512z" />
<glyph unicode="Q" horiz-adv-x="1658" d="M76 733q0 326 217 545q217 221 536 221t537 -223q217 -219 217 -543q0 -172 -66.5 -321.5t-189.5 -259.5l103 -154l-148 -96l-100 149q-172 -84 -353 -84q-319 0 -536 221q-217 219 -217 545zM268 733q0 -254 160 -420q161 -166 401 -166q131 0 248 58l-172 258l148 100 l170 -256q168 162 168 426q0 256 -162 420q-160 166 -400 166t-401 -166q-160 -166 -160 -420z" />
<glyph unicode="R" horiz-adv-x="1183" d="M147 0v1466h500q190 0 324.5 -126t134.5 -310q0 -152 -99.5 -269.5t-250.5 -150.5l-4 -6l411 -596v-8h-223l-395 594h-209v-594h-189zM336 770h303q115 0 194.5 75t79.5 185q0 102 -74.5 179t-187.5 77h-315v-516z" />
<glyph unicode="S" horiz-adv-x="1132" d="M49 365l180 73q18 -66 51 -119t77 -91t97.5 -59.5t112.5 -21.5q129 0 211 67t82 177q0 92 -67 158q-63 63 -238 123q-176 63 -219 86q-233 119 -234 350q0 162 129 276q131 115 322 115q168 0 291 -86q123 -84 164 -211l-177 -74q-25 82 -97 136.5t-177 54.5 q-111 0 -186 -62q-76 -57 -76 -149q0 -76 59 -131q66 -55 285 -131q223 -76 318.5 -185.5t95.5 -269.5q0 -193 -142 -309q-143 -115 -348 -115q-182 0 -321 107q-139 106 -193 291z" />
<glyph unicode="T" horiz-adv-x="1105" d="M49 1286v180h1008v-180h-410v-1286h-188v1286h-410z" />
<glyph unicode="U" horiz-adv-x="1314" d="M115 545v921h188v-929q0 -180 94.5 -285t259.5 -105q166 0 260.5 104.5t94.5 285.5v929h188v-921q0 -266 -147 -422q-148 -156 -396 -156q-244 0 -393 160q-150 158 -149 418z" />
<glyph unicode="V" horiz-adv-x="1294" d="M25 1466h208l402 -1190h8l418 1190h209l-533 -1466h-196z" />
<glyph unicode="W" horiz-adv-x="1888" d="M33 1466h196l310 -1153h8l317 957h176l318 -957h8l293 1153h196l-391 -1466h-192l-316 967h-8l-315 -967h-193z" />
<glyph unicode="X" horiz-adv-x="1294" d="M33 0l491 758l-463 708h226l356 -561h8l357 561h225l-463 -708l492 -758h-222l-389 600h-8l-389 -600h-221z" />
<glyph unicode="Y" horiz-adv-x="1216" d="M25 1466h221l362 -596h8l355 596h221l-485 -784v-682h-189v682z" />
<glyph unicode="Z" horiz-adv-x="1155" d="M66 0v197l780 1089h-748v180h967v-196l-780 -1090h788v-180h-1007z" />
<glyph unicode="[" horiz-adv-x="630" d="M147 -254v1876h418v-156h-246v-1564h246v-156h-418z" />
<glyph unicode="\" horiz-adv-x="894" d="M55 1466h176l609 -1466h-176z" />
<glyph unicode="]" horiz-adv-x="630" d="M66 -98h245v1564h-245v156h417v-1876h-417v156z" />
<glyph unicode="^" horiz-adv-x="962" d="M25 840l383 626h147l383 -626h-197l-256 446h-8l-256 -446h-196z" />
<glyph unicode="_" horiz-adv-x="983" d="M0 -287h983v-155h-983v155z" />
<glyph unicode="`" horiz-adv-x="819" d="M197 1466h204l107 -262h-164z" />
<glyph unicode="a" horiz-adv-x="1044" d="M57 311q0 156 118 248t314 92q168 0 277 -61v43q0 98 -78 166.5t-182 68.5q-158 0 -250 -133l-166 105q138 196 406 196q209 0 329.5 -111.5t120.5 -306.5v-618h-180v139h-8q-117 -172 -312 -172q-166 0 -277.5 98.5t-111.5 245.5zM252 307q0 -74 62.5 -123t146.5 -49 q119 0 212 88t93 207q-88 70 -246 70q-115 0 -191.5 -55.5t-76.5 -137.5z" />
<glyph unicode="b" horiz-adv-x="1179" d="M115 0v1466h188v-462l-8 -140h8q49 78 140.5 125t201.5 47q199 0 336 -155q141 -158 141 -379q0 -223 -141 -379q-137 -156 -336 -156q-111 0 -202 47t-140 125h-8v-139h-180zM295 502q0 -160 90 -262q92 -101 229 -101q135 0 228 103q92 100 92 260q0 158 -92 260 t-228 102q-137 0 -229 -102q-90 -102 -90 -260z" />
<glyph unicode="c" horiz-adv-x="1069" d="M57 502q0 231 146 383q146 151 367 151h3q154 0 268.5 -76.5t172.5 -211.5l-172 -72q-80 188 -281 188q-129 0 -223 -104q-92 -104 -92 -258t92 -258q94 -104 223 -105q207 0 291 189l168 -72q-55 -135 -173 -212t-274 -77q-223 0 -370 152q-145 156 -146 383z" />
<glyph unicode="d" horiz-adv-x="1179" d="M57 502q0 221 140 379q140 155 335 155h3q111 0 201.5 -47t140.5 -125h8l-8 140v462h188v-1466h-180v139h-8q-49 -78 -140 -125t-202 -47q-197 0 -338 156q-139 158 -140 379zM246 502q0 -160 92 -260q92 -103 227 -103q139 0 228 101q92 100 92 262q0 158 -92 260 q-90 102 -228 102q-135 0 -227 -102t-92 -260z" />
<glyph unicode="e" horiz-adv-x="1097" d="M57 502q0 229 139.5 381.5t356.5 152.5q223 0 355 -144t132 -405l-2 -20h-788q4 -147 98 -237.5t225 -90.5q180 0 283 180l168 -81q-68 -127 -187.5 -199t-271.5 -72q-221 0 -364.5 151.5t-143.5 383.5zM264 623h576q-8 104 -85 172.5t-206 68.5q-106 0 -183 -65 t-102 -176z" />
<glyph unicode="f" horiz-adv-x="753" d="M49 831v173h189v145q0 150 95 242t245 92q102 0 167 -35l-51 -166q-49 25 -110 25q-70 0 -114 -48.5t-44 -128.5v-126h262v-173h-262v-831h-188v831h-189z" />
<glyph unicode="g" horiz-adv-x="1179" d="M57 502q0 223 140 379q140 155 335 155h3q106 0 197 -46t145 -126h8v140h180v-961q0 -242 -137 -379q-140 -139 -369 -139q-84 0 -157.5 21.5t-134 60.5t-103.5 92t-66 119l178 73q31 -88 107 -141t176 -53q154 0 240 92t86 254v96h-8q-53 -80 -144.5 -126t-197.5 -46 q-197 0 -338 154q-139 158 -140 381zM246 502q0 -160 92 -260q92 -103 227 -103q139 0 228 101q92 100 92 262q0 158 -92 260q-90 102 -228 102q-135 0 -227 -102t-92 -260z" />
<glyph unicode="h" d="M115 0v1466h188v-462l-8 -140h8q43 74 132 123t186 49q184 0 283.5 -105.5t99.5 -299.5v-631h-189v594q0 270 -240 270q-115 0 -193.5 -95t-78.5 -222v-547h-188z" />
<glyph unicode="i" horiz-adv-x="450" d="M92 1350q0 55 39 94t94 39t94 -39t39 -94t-38.5 -94t-94.5 -39q-55 0 -94 38.5t-39 94.5zM131 0v1004h188v-1004h-188z" />
<glyph unicode="j" horiz-adv-x="450" d="M-92 -442l49 163q33 -12 55 -12q115 0 119 141v1154h188v-1125q0 -342 -301 -342q-61 0 -110 21zM92 1350q0 55 39 94t94 39t94 -39t39 -94t-38.5 -94t-94.5 -39q-55 0 -94 38.5t-39 94.5z" />
<glyph unicode="k" horiz-adv-x="989" d="M115 0v1466h188v-903l434 441h242v-9l-391 -389l409 -598v-8h-227l-313 473l-154 -151v-322h-188z" />
<glyph unicode="l" horiz-adv-x="417" d="M115 0v1466h188v-1466h-188z" />
<glyph unicode="m" horiz-adv-x="1744" d="M115 0v1004h180v-140h8q43 74 132 123t177 49q111 0 195 -51t123 -141q124 192 344 192h2q174 0 268 -106.5t94 -302.5v-627h-188v598q0 141 -51 203.5t-172 62.5q-109 0 -182.5 -92t-73.5 -217v-555h-189v598q0 141 -51 203.5t-172 62.5q-109 0 -182.5 -92t-73.5 -217 v-555h-188z" />
<glyph unicode="n" d="M115 0v1004h180v-140h8q43 74 132 123t186 49q184 0 283.5 -105.5t99.5 -299.5v-631h-189v618q-6 246 -248 246q-113 0 -188.5 -91t-75.5 -218v-555h-188z" />
<glyph unicode="o" horiz-adv-x="1146" d="M57 502q0 231 146 383q146 151 367 151h3q223 0 369 -151q147 -152 148 -383q0 -233 -148 -383q-145 -152 -369 -152q-223 0 -370 152q-146 152 -146 383zM246 502q0 -162 94 -262t233 -101q139 0 234 101q94 100 94 262q0 160 -94 260q-96 102 -234 102 q-137 0 -233 -102q-94 -100 -94 -260z" />
<glyph unicode="p" horiz-adv-x="1171" d="M106 -442v1446h181v-140h8q49 78 140 125t202 47q199 0 336 -155q141 -158 141 -379q0 -223 -141 -379q-137 -156 -336 -156q-111 0 -202 47t-140 125h-8l8 -139v-442h-189zM287 502q0 -160 90 -262q92 -101 229 -101q135 0 228 103q92 100 92 260q0 158 -92 260 t-228 102q-137 0 -229 -102q-90 -102 -90 -260z" />
<glyph unicode="q" horiz-adv-x="1171" d="M57 502q0 221 140 379q140 155 335 155h3q111 0 201.5 -47t140.5 -125h8v140h180v-1446h-188v442l8 139h-8q-49 -78 -140.5 -125t-201.5 -47q-197 0 -338 156q-139 158 -140 379zM246 502q0 -160 92 -260q92 -103 227 -103q139 0 228 101q92 100 92 262q0 158 -92 260 q-90 102 -228 102q-135 0 -227 -102t-92 -260z" />
<glyph unicode="r" horiz-adv-x="743" d="M115 0v1004h180v-164h8q29 80 118 136t175 56q82 0 139 -24l-57 -183q-35 14 -111 15q-106 0 -185 -86t-79 -201v-553h-188z" />
<glyph unicode="s" horiz-adv-x="931" d="M49 254l168 72q37 -90 107.5 -140.5t154.5 -50.5q90 0 150.5 39t60.5 92q0 96 -147 142l-172 43q-293 74 -293 282q0 137 111.5 220t285.5 83q133 0 240.5 -63.5t150.5 -169.5l-168 -70q-29 63 -93 99t-144 36q-74 0 -132.5 -36.5t-58.5 -90.5q0 -86 162 -123l152 -38 q299 -74 299 -301q0 -131 -115 -221.5t-289 -90.5q-152 0 -266.5 79t-163.5 208z" />
<glyph unicode="t" horiz-adv-x="724" d="M49 831v173h176v307h189v-307h245v-173h-245v-499q0 -100 39 -136t88 -36q23 0 44 5t40 13l59 -168q-74 -26 -172 -26q-123 0 -204 75.5t-83 210.5v561h-176z" />
<glyph unicode="u" d="M106 373v631h189v-619q6 -246 248 -246q113 0 188.5 91.5t75.5 218.5v555h188v-1004h-180v139h-8q-43 -74 -132 -123t-186 -49q-184 0 -283.5 105.5t-99.5 300.5z" />
<glyph unicode="v" horiz-adv-x="1019" d="M8 1004h205l295 -779h4l299 779h201l-410 -1004h-188z" />
<glyph unicode="w" horiz-adv-x="1544" d="M8 1004h197l223 -758h2l248 758h194l248 -758h2l221 758h193l-324 -1004h-192l-250 770l-248 -770h-190z" />
<glyph unicode="x" horiz-adv-x="966" d="M16 0l355 510l-346 494h213l247 -355l236 355h221l-350 -494l358 -510h-221l-248 371l-243 -371h-222z" />
<glyph unicode="y" horiz-adv-x="1019" d="M8 1004h205l299 -721h4l291 721h205l-629 -1446h-195l234 505z" />
<glyph unicode="z" horiz-adv-x="942" d="M66 0v164l571 667h-555v173h786v-164l-571 -668h580v-172h-811z" />
<glyph unicode="{" horiz-adv-x="651" d="M49 606v156q152 0 152 190v332q0 156 92 247t248 91h45v-156h-31q-182 0 -182 -206v-340q-2 -182 -142 -232v-8q137 -45 142 -225v-346q0 -207 182 -207h31v-156h-45q-156 0 -248 91t-92 247v332q0 190 -152 190z" />
<glyph unicode="|" horiz-adv-x="466" d="M147 -246v1868h172v-1868h-172z" />
<glyph unicode="}" horiz-adv-x="651" d="M66 -98h30q182 0 183 207v346q4 180 141 225v8q-139 49 -141 232v340q0 207 -183 206h-30v156h45q156 0 248 -91t92 -247v-332q0 -190 151 -190v-156q-152 0 -151 -190v-332q0 -156 -92.5 -247t-247.5 -91h-45v156z" />
<glyph unicode="~" horiz-adv-x="1085" d="M66 508q0 119 72.5 196.5t174.5 77.5q72 0 240 -66.5t215 -66.5q43 0 71.5 31t32.5 74h148q0 -119 -73 -197t-175 -78q-63 0 -238.5 66.5t-216.5 66.5q-43 0 -71.5 -30.5t-32.5 -73.5h-147z" />
<glyph unicode="&#xa1;" horiz-adv-x="475" d="M98 897q0 59 41 99t99 40q59 0 99 -40t40 -99q0 -57 -40 -98t-99 -41q-57 0 -98.5 41t-41.5 98zM143 20l21 549h147l21 -549v-462h-189v462z" />
<glyph unicode="&#xa2;" horiz-adv-x="1069" d="M57 700q0 207 119 351q121 145 316 174v176h155v-174q262 -35 367 -281l-172 -72q-61 143 -195 179v-705q143 33 205 178l168 -71q-104 -246 -373 -281v-174h-155v176q-195 27 -314 172q-121 145 -121 352zM246 700q0 -66 18.5 -123t50 -103t76.5 -80t101 -48v709 q-55 -16 -100.5 -49t-77 -79t-50 -104.5t-18.5 -122.5z" />
<glyph unicode="&#xa3;" horiz-adv-x="1062" d="M66 0v164q201 92 200 305v20l-2 15h-198v158h139q-139 209 -139 366q0 170 119.5 288t301.5 118q147 0 255 -80t151 -211l-172 -72q-57 182 -234 182q-102 0 -167.5 -65.5t-65.5 -159.5q0 -98 73.5 -223t82.5 -143h276v-158h-235q0 -197 -121 -318l6 -6h364 q127 0 174 117l156 -66q-92 -227 -323 -231h-641z" />
<glyph unicode="&#xa4;" horiz-adv-x="1224" d="M123 297l123 119q-76 119 -76 250q0 143 76 249l-123 121l108 111l121 -117q115 84 260 84t260 -84l121 117l109 -111l-121 -118q74 -111 74 -252q0 -139 -74 -250l121 -119l-109 -111l-121 117q-123 -86 -260 -86q-68 0 -134 21.5t-126 64.5l-121 -117zM342 666 q0 -119 78 -203q80 -82 192 -82q115 0 191 82q80 82 80 203q0 117 -80 200q-78 84 -191 84t-192 -84q-78 -83 -78 -200z" />
<glyph unicode="&#xa5;" horiz-adv-x="1171" d="M25 1401h215l346 -578h8l338 578h215l-365 -578h244v-155h-342v-172h342v-156h-342v-340h-188v340h-351v156h351v172h-351v155h250z" />
<glyph unicode="&#xa6;" horiz-adv-x="466" d="M147 -246v844h172v-844h-172zM147 770v778h172v-778h-172z" />
<glyph unicode="&#xa7;" horiz-adv-x="1095" d="M82 -80l176 72q35 -133 114 -210t185 -77q111 0 187.5 59.5t76.5 147.5q0 96 -71.5 159.5t-253 119t-274.5 146.5t-93 230q0 82 46 158t128 123q-174 104 -174 293q0 145 119 251.5t303 106.5q145 0 262 -88t156 -209l-174 -72q-23 76 -90.5 132.5t-149.5 56.5 q-98 0 -165.5 -53.5t-67.5 -124.5q0 -129 244.5 -207t346 -182.5t101.5 -262.5q0 -184 -133 -282q133 -109 133 -291q0 -174 -133 -282.5t-324 -108.5q-168 0 -299 106.5t-176 288.5zM322 571q0 -109 153 -176l258 -96q39 29 63.5 81t24.5 101q0 100 -71.5 164t-257.5 121 l-9 2q-70 -20 -115.5 -78t-45.5 -119z" />
<glyph unicode="&#xa8;" horiz-adv-x="819" d="M121 1350q0 49 34.5 82.5t82.5 33.5q51 0 83.5 -32.5t32.5 -83.5q0 -47 -33.5 -82t-82.5 -35q-45 0 -81 36t-36 81zM465 1350q0 49 35 82.5t82 33.5q51 0 83.5 -32.5t32.5 -83.5q0 -47 -33.5 -82t-82.5 -35q-45 0 -81 36t-36 81z" />
<glyph unicode="&#xa9;" horiz-adv-x="1089" d="M74 1028q0 195 137 332q139 139 334 139q193 0 332 -139t139 -332q0 -195 -139 -334q-137 -137 -332 -137q-197 0 -334 137t-137 334zM172 1028q0 -152 111 -262q111 -111 262 -111q154 0 262 109q111 111 111 264q0 156 -109 264q-109 109 -264 109q-154 0 -264 -111 q-109 -108 -109 -262zM309 1028q0 102 70 172q72 72 174 72q98 0 178 -80l-65 -59q-47 49 -113 49q-61 0 -105.5 -45t-44.5 -109q0 -31 12.5 -59.5t33 -49t47 -33t57.5 -12.5q78 0 123 64l69 -55q-73 -99 -192 -99q-104 0 -174 70t-70 174z" />
<glyph unicode="&#xaa;" horiz-adv-x="978" d="M82 858q0 137 109.5 219t283.5 82q154 0 250 -57v31q0 92 -64.5 149t-160.5 57q-150 0 -215 -112l-160 78q39 88 136 141t231 53q180 0 292.5 -103.5t112.5 -275.5v-534h-172v127h-8q-43 -72 -121 -114t-170 -42q-145 0 -244.5 85t-99.5 216zM270 850q0 -61 53.5 -99 t131.5 -38q106 0 188 72.5t82 175.5q-29 25 -98 47q-61 14 -113 14q-117 0 -180.5 -45t-63.5 -127z" />
<glyph unicode="&#xab;" horiz-adv-x="1138" d="M82 555l414 449l110 -103l-327 -346l327 -346l-110 -103zM492 555l414 449l110 -103l-327 -346l327 -346l-110 -103z" />
<glyph unicode="&#xac;" horiz-adv-x="1150" d="M98 633v155h889v-573h-147v418h-742z" />
<glyph unicode="&#xad;" horiz-adv-x="884" d="M115 557v156h655v-156h-655z" />
<glyph unicode="&#xae;" horiz-adv-x="1089" d="M74 1028q0 195 137 332q139 139 334 139q193 0 332 -139t139 -332q0 -195 -139 -334q-137 -137 -332 -137q-197 0 -334 137t-137 334zM172 1028q0 -152 111 -262q111 -111 262 -111q154 0 262 109q111 111 111 264q0 156 -109 264q-109 109 -264 109q-154 0 -264 -111 q-109 -108 -109 -262zM387 797v463h197q61 0 105 -43t44 -105q0 -47 -28.5 -85t-73.5 -50l-4 -4l123 -172v-4h-107l-113 172h-49v-172h-94zM481 1055h94q27 0 45.5 16t18.5 41q0 57 -76 57h-82v-114z" />
<glyph unicode="&#xaf;" horiz-adv-x="819" d="M123 1276v147h573v-147h-573z" />
<glyph unicode="&#xb0;" horiz-adv-x="665" d="M66 1169q0 109 77 187q82 78 191 78q111 0 188 -78q78 -78 78 -187q0 -111 -80 -186q-78 -78 -186 -78q-109 0 -191 78q-78 78 -77 186zM205 1176q0 -27 9 -52.5t26.5 -45t41 -32t52.5 -10.5q51 0 89 40t38 93q2 57 -39 95.5t-92 38.5t-88 -39q-37 -35 -37 -88z" />
<glyph unicode="&#xb1;" horiz-adv-x="1126" d="M115 0v156h897v-156h-897zM115 606v156h370v321h156v-321h371v-156h-371v-321h-156v321h-370z" />
<glyph unicode="&#xb2;" horiz-adv-x="622" d="M49 1288q18 88 90 141.5t166 53.5q106 0 181 -62.5t75 -158.5q0 -90 -104 -201l-215 -213h323v-131h-512v123l293 295q68 72 68 127q0 39 -31 64.5t-76 25.5q-100 0 -125 -119z" />
<glyph unicode="&#xb3;" horiz-adv-x="661" d="M49 905l133 49q27 -123 142 -123q51 0 88 32t37 79q0 102 -146 102h-61v123h59q123 0 123 97q0 39 -29.5 63.5t-72.5 24.5q-86 0 -119 -88l-127 51q57 168 246 168q111 0 180 -59.5t69 -157.5q0 -96 -92 -154q117 -68 117 -172q0 -53 -20.5 -96t-57.5 -76t-87 -50.5 t-107 -17.5q-104 0 -177 53.5t-98 151.5z" />
<glyph unicode="&#xb4;" horiz-adv-x="819" d="M311 1204l107 262h205l-148 -262h-164z" />
<glyph unicode="&#xb5;" d="M106 -442v1446h189v-580q0 -285 248 -285q113 0 188 92q76 92 76 220v553h188v-1004h-180v139h-8q-102 -172 -309 -172q-109 0 -203 82h-8l8 -115v-376h-189z" />
<glyph unicode="&#xb6;" horiz-adv-x="1277" d="M49 1036.5q0 188.5 131 309t328 120.5h606v-1908h-172v1728h-172v-1728h-172v1048h-90q-197 0 -328 121t-131 309.5z" />
<glyph unicode="&#xb7;" horiz-adv-x="360" d="M41 664q0 59 41 99t98 40q59 0 99 -40t40 -99q0 -57 -39.5 -98.5t-99.5 -41.5q-57 0 -98 41t-41 99z" />
<glyph unicode="&#xb8;" horiz-adv-x="819" d="M145 -348l107 47q23 -70 86 -70q37 0 60.5 23.5t23.5 58.5q0 37 -23.5 61.5t-60.5 24.5q-39 0 -68 -33l-96 46l72 190h114l-43 -98l41 4q78 0 132.5 -55.5t54.5 -139.5q0 -82 -59.5 -139t-147.5 -57q-63 0 -116.5 37.5t-76.5 99.5z" />
<glyph unicode="&#xb9;" horiz-adv-x="495" d="M49 1358l230 108h94v-749h-144v583l-131 -53z" />
<glyph unicode="&#xba;" horiz-adv-x="1056" d="M74 1028q0 203 129 336q129 135 325 135q197 0 326 -135q129 -133 129 -336t-129 -338q-129 -133 -326 -133t-325 133q-129 135 -129 338zM254 1028q0 -131 80 -219q82 -88 194 -88q113 0 193 88q82 88 82 219q0 129 -82 217q-80 90 -193 90t-194 -88q-80 -90 -80 -219z " />
<glyph unicode="&#xbb;" horiz-adv-x="1138" d="M123 209l328 346l-328 346l110 103l414 -449l-414 -449zM533 209l328 346l-328 346l110 103l414 -449l-414 -449z" />
<glyph unicode="&#xbc;" horiz-adv-x="1507" d="M98 1358l230 108h94v-749h-144v583l-131 -53zM205 59l954 1424l115 -78l-953 -1421zM800 147v99l357 504h137v-480h98v-123h-98v-147h-143v147h-351zM950 270h201v269h-9z" />
<glyph unicode="&#xbd;" horiz-adv-x="1589" d="M98 1358l230 108h94v-749h-144v583l-131 -53zM189 59l954 1424l115 -78l-953 -1421zM958 571q18 88 90 141.5t166 53.5q106 0 181 -62.5t75 -158.5q0 -90 -104 -201l-215 -213h323v-131h-512v123l293 295q68 72 68 127q0 39 -31 64.5t-76 25.5q-100 0 -125 -119z" />
<glyph unicode="&#xbe;" horiz-adv-x="1697" d="M98 905l133 49q27 -123 142 -123q51 0 88 32t37 79q0 102 -146 102h-61v123h59q123 0 123 97q0 39 -29.5 63.5t-72.5 24.5q-86 0 -119 -88l-127 51q57 168 246 168q111 0 180 -59.5t69 -157.5q0 -96 -92 -154q117 -68 117 -172q0 -53 -20.5 -96t-57.5 -76t-87 -50.5 t-107 -17.5q-104 0 -177 53.5t-98 151.5zM367 59l954 1424l115 -78l-953 -1421zM987 147v99l357 504h137v-480h98v-123h-98v-147h-143v147h-351zM1137 270h201v269h-9z" />
<glyph unicode="&#xbf;" horiz-adv-x="987" d="M76 -86q0 86 43 165t161.5 187.5t120.5 214.5v88h193v-96q0 -84 -34 -149.5t-129 -153.5t-129 -139t-34 -117q0 -96 61.5 -152.5t166.5 -56.5q178 0 241 197l176 -74q-49 -135 -159.5 -219t-257.5 -84q-184 0 -302 109.5t-118 279.5zM358 897q0 59 41 99t99 40 q59 0 99 -40t40 -99q0 -57 -40 -98t-99 -41q-57 0 -98.5 41t-41.5 98z" />
<glyph unicode="&#xc0;" horiz-adv-x="1368" d="M25 0l553 1466h213l552 -1466h-208l-142 397h-616l-144 -397h-208zM440 573h488l-240 662h-8zM451 1843h204l107 -262h-164z" />
<glyph unicode="&#xc1;" horiz-adv-x="1368" d="M25 0l553 1466h213l552 -1466h-208l-142 397h-616l-144 -397h-208zM440 573h488l-240 662h-8zM606 1581l107 262h205l-148 -262h-164z" />
<glyph unicode="&#xc2;" horiz-adv-x="1368" d="M25 0l553 1466h213l552 -1466h-208l-142 397h-616l-144 -397h-208zM391 1594v10l211 239h164l210 -239v-10h-182l-102 122h-17l-102 -122h-182zM440 573h488l-240 662h-8z" />
<glyph unicode="&#xc3;" horiz-adv-x="1368" d="M25 0l553 1466h213l552 -1466h-208l-142 397h-616l-144 -397h-208zM347 1614q0 109 66.5 175.5t160.5 66.5q59 0 166 -62q61 -31 71 -31q63 0 68 72h156q0 -109 -67 -175t-161 -66q-49 0 -136 46t-101 46q-63 0 -68 -72h-155zM440 573h488l-240 662h-8z" />
<glyph unicode="&#xc4;" horiz-adv-x="1368" d="M25 0l553 1466h213l552 -1466h-208l-142 397h-616l-144 -397h-208zM395 1727q0 49 34.5 82.5t82.5 33.5q51 0 83.5 -32.5t32.5 -83.5q0 -47 -33.5 -82t-82.5 -35q-45 0 -81 36t-36 81zM440 573h488l-240 662h-8zM739 1727q0 49 35 82.5t82 33.5q51 0 83.5 -32.5 t32.5 -83.5q0 -47 -33.5 -82t-82.5 -35q-45 0 -81 36t-36 81z" />
<glyph unicode="&#xc5;" horiz-adv-x="1368" d="M25 0l522 1384q-76 68 -76 164q0 45 16.5 84t46 68t68.5 45t82 16t82 -16t68.5 -46t46 -69t16.5 -82q0 -98 -76 -162l522 -1386h-208l-142 397h-616l-144 -397h-208zM440 573h488l-240 662h-8zM602 1548q0 -33 24.5 -57.5t57.5 -24.5q35 0 58.5 25t23.5 57 q0 35 -23.5 58.5t-58.5 23.5q-33 0 -57.5 -23.5t-24.5 -58.5z" />
<glyph unicode="&#xc6;" horiz-adv-x="1966" d="M8 0l885 1466h967v-180h-668v-465h602v-176h-602v-465h668v-180h-856v397h-535l-236 -397h-225zM573 573h431v713h-9z" />
<glyph unicode="&#xc7;" horiz-adv-x="1492" d="M76 733q0 328 217 545q217 221 545 221q332 0 538 -239l-135 -132q-158 190 -403 191q-244 0 -408 -164q-162 -162 -162 -422t162 -422q164 -164 408 -164q256 0 444 215l137 -133q-100 -119 -247.5 -188.5t-315.5 -73.5l-29 -65l41 4q78 0 132.5 -55.5t54.5 -139.5 q0 -82 -59.5 -139t-147.5 -57q-63 0 -116.5 37.5t-76.5 99.5l107 47q20 -70 86 -70q37 0 60.5 23.5t23.5 58.5q0 37 -23.5 61.5t-60.5 24.5q-41 0 -68 -33l-96 46l61 163q-295 35 -481 246q-188 213 -188 514z" />
<glyph unicode="&#xc8;" d="M147 0v1466h857v-180h-668v-465h602v-176h-602v-465h668v-180h-857zM363 1843h204l107 -262h-164z" />
<glyph unicode="&#xc9;" d="M147 0v1466h857v-180h-668v-465h602v-176h-602v-465h668v-180h-857zM481 1581l107 262h205l-148 -262h-164z" />
<glyph unicode="&#xca;" d="M147 0v1466h857v-180h-668v-465h602v-176h-602v-465h668v-180h-857zM283 1594v10l211 239h164l210 -239v-10h-182l-102 122h-17l-102 -122h-182z" />
<glyph unicode="&#xcb;" d="M147 0v1466h857v-180h-668v-465h602v-176h-602v-465h668v-180h-857zM279 1727q0 49 34.5 82.5t82.5 33.5q51 0 83.5 -32.5t32.5 -83.5q0 -47 -33.5 -82t-82.5 -35q-45 0 -81 36t-36 81zM623 1727q0 49 35 82.5t82 33.5q51 0 83.5 -32.5t32.5 -83.5q0 -47 -33.5 -82 t-82.5 -35q-45 0 -81 36t-36 81z" />
<glyph unicode="&#xcc;" horiz-adv-x="483" d="M13 1843h204l107 -262h-164zM147 0v1466h189v-1466h-189z" />
<glyph unicode="&#xcd;" horiz-adv-x="483" d="M147 0v1466h189v-1466h-189zM159 1581l107 262h205l-148 -262h-164z" />
<glyph unicode="&#xce;" horiz-adv-x="483" d="M-51 1594v10l211 239h164l210 -239v-10h-182l-102 122h-17l-102 -122h-182zM147 0v1466h189v-1466h-189z" />
<glyph unicode="&#xcf;" horiz-adv-x="483" d="M-14 1729q0 49 34.5 82.5t81.5 33.5q51 0 84 -32.5t33 -83.5q0 -47 -33.5 -82t-83.5 -35q-45 0 -80.5 35.5t-35.5 81.5zM147 0v1466h189v-1466h-189zM264 1729q0 49 35 82.5t82 33.5q51 0 84 -32.5t33 -83.5q0 -47 -34 -82t-83 -35q-45 0 -81 35.5t-36 81.5z" />
<glyph unicode="&#xd0;" horiz-adv-x="1538" d="M115 653v156h155v657h449q336 0 539.5 -202.5t203.5 -530.5q0 -330 -203.5 -531.5t-539.5 -201.5h-449v653h-155zM459 180h260q256 0 403.5 146.5t147.5 406.5q0 258 -147.5 405.5t-403.5 147.5h-260v-477h409v-156h-409v-473z" />
<glyph unicode="&#xd1;" horiz-adv-x="1425" d="M147 0v1466h230l713 -1140h8l-8 282v858h188v-1466h-197l-745 1196h-8l8 -283v-913h-189zM385 1614q0 109 66.5 175.5t160.5 66.5q59 0 166 -62q61 -31 71 -31q63 0 68 72h156q0 -109 -67 -175t-161 -66q-49 0 -136 46t-101 46q-63 0 -68 -72h-155z" />
<glyph unicode="&#xd2;" horiz-adv-x="1658" d="M76 733q0 326 217 545q217 221 536 221t537 -223q217 -219 217 -543q0 -326 -217 -545q-219 -221 -537 -221q-319 0 -536 221q-217 219 -217 545zM268 733q0 -254 160 -420q162 -166 401 -166q240 0 400 166q162 164 162 420t-162 420q-160 166 -400 166t-401 -166 q-160 -166 -160 -420zM600 1843h204l107 -262h-164z" />
<glyph unicode="&#xd3;" horiz-adv-x="1658" d="M76 733q0 326 217 545q217 221 536 221t537 -223q217 -219 217 -543q0 -326 -217 -545q-219 -221 -537 -221q-319 0 -536 221q-217 219 -217 545zM268 733q0 -254 160 -420q162 -166 401 -166q240 0 400 166q162 164 162 420t-162 420q-160 166 -400 166t-401 -166 q-160 -166 -160 -420zM747 1581l107 262h205l-148 -262h-164z" />
<glyph unicode="&#xd4;" horiz-adv-x="1658" d="M76 733q0 326 217 545q217 221 536 221t537 -223q217 -219 217 -543q0 -326 -217 -545q-219 -221 -537 -221q-319 0 -536 221q-217 219 -217 545zM268 733q0 -254 160 -420q162 -166 401 -166q240 0 400 166q162 164 162 420t-162 420q-160 166 -400 166t-401 -166 q-160 -166 -160 -420zM537 1596v10l211 239h164l210 -239v-10h-182l-102 122h-17l-102 -122h-182z" />
<glyph unicode="&#xd5;" horiz-adv-x="1658" d="M76 733q0 326 217 545q217 221 536 221t537 -223q217 -219 217 -543q0 -326 -217 -545q-219 -221 -537 -221q-319 0 -536 221q-217 219 -217 545zM268 733q0 -254 160 -420q162 -166 401 -166q240 0 400 166q162 164 162 420t-162 420q-160 166 -400 166t-401 -166 q-160 -166 -160 -420zM486 1614q0 109 66.5 175.5t160.5 66.5q59 0 166 -62q61 -31 71 -31q63 0 68 72h156q0 -109 -67 -175t-161 -66q-49 0 -136 46t-101 46q-63 0 -68 -72h-155z" />
<glyph unicode="&#xd6;" horiz-adv-x="1658" d="M76 733q0 326 217 545q217 221 536 221t537 -223q217 -219 217 -543q0 -326 -217 -545q-219 -221 -537 -221q-319 0 -536 221q-217 219 -217 545zM268 733q0 -254 160 -420q162 -166 401 -166q240 0 400 166q162 164 162 420t-162 420q-160 166 -400 166t-401 -166 q-160 -166 -160 -420zM541 1727q0 49 34.5 82.5t82.5 33.5q51 0 83.5 -32.5t32.5 -83.5q0 -47 -33.5 -82t-82.5 -35q-45 0 -81 36t-36 81zM885 1727q0 49 35 82.5t82 33.5q51 0 83.5 -32.5t32.5 -83.5q0 -47 -33.5 -82t-82.5 -35q-45 0 -81 36t-36 81z" />
<glyph unicode="&#xd7;" d="M123 238l326 317l-326 317l104 105l328 -320l328 320l104 -105l-325 -317l325 -317l-104 -105l-328 320l-328 -320z" />
<glyph unicode="&#xd8;" horiz-adv-x="1658" d="M76 733q0 324 217 545t536 221q180 0 340 -80l78 125l127 -82l-78 -123q137 -109 212 -267.5t75 -338.5q0 -324 -217 -545t-537 -221q-182 0 -337 78l-76 -121l-129 80l75 121q-135 106 -210.5 266t-75.5 342zM268 733q0 -283 193 -450l612 983q-111 53 -244 53 q-240 0 -400.5 -166t-160.5 -420zM588 201q110 -54 241 -54q240 0 401 166t161 420q0 279 -191 449z" />
<glyph unicode="&#xd9;" horiz-adv-x="1314" d="M115 545v921h188v-929q0 -180 94.5 -285t259.5 -105q166 0 260.5 104.5t94.5 285.5v929h188v-921q0 -266 -147 -422q-148 -156 -396 -156q-244 0 -393 160q-150 158 -149 418zM441 1843h204l107 -262h-164z" />
<glyph unicode="&#xda;" horiz-adv-x="1314" d="M115 545v921h188v-929q0 -180 94.5 -285t259.5 -105q166 0 260.5 104.5t94.5 285.5v929h188v-921q0 -266 -147 -422q-148 -156 -396 -156q-244 0 -393 160q-150 158 -149 418zM563 1581l107 262h205l-148 -262h-164z" />
<glyph unicode="&#xdb;" horiz-adv-x="1314" d="M115 545v921h188v-929q0 -180 94.5 -285t259.5 -105q166 0 260.5 104.5t94.5 285.5v929h188v-921q0 -266 -147 -422q-148 -156 -396 -156q-244 0 -393 160q-150 158 -149 418zM365 1594v10l211 239h164l210 -239v-10h-182l-102 122h-17l-102 -122h-182z" />
<glyph unicode="&#xdc;" horiz-adv-x="1314" d="M115 545v921h188v-929q0 -180 94.5 -285t259.5 -105q166 0 260.5 104.5t94.5 285.5v929h188v-921q0 -266 -147 -422q-148 -156 -396 -156q-244 0 -393 160q-150 158 -149 418zM369 1727q0 49 34.5 82.5t82.5 33.5q51 0 83.5 -32.5t32.5 -83.5q0 -47 -33.5 -82t-82.5 -35 q-45 0 -81 36t-36 81zM713 1727q0 49 35 82.5t82 33.5q51 0 83.5 -32.5t32.5 -83.5q0 -47 -33.5 -82t-82.5 -35q-45 0 -81 36t-36 81z" />
<glyph unicode="&#xdd;" horiz-adv-x="1216" d="M25 1466h221l362 -596h8l355 596h221l-485 -784v-682h-189v682zM514 1581l107 262h205l-148 -262h-164z" />
<glyph unicode="&#xde;" horiz-adv-x="1155" d="M147 0v1466h189v-249h311q190 0 324 -127q135 -127 135 -310q0 -186 -135 -311q-131 -125 -324 -125h-311v-344h-189zM336 524h315q113 0 187 76q76 76 75 180q0 102 -75 178q-74 78 -187 78h-315v-512z" />
<glyph unicode="&#xdf;" horiz-adv-x="1150" d="M147 0v1057q0 199 120 320.5t321 121.5q186 0 309 -112.5t123 -284.5q0 -215 -176 -305v-9q242 -104 241 -356q0 -195 -132 -321.5t-337 -126.5l-108 8v180l108 -8q117 0 197 77.5t80 190.5q0 109 -87 186.5t-206 77.5h-76v176h51q117 0 184.5 61.5t67.5 168.5 q0 94 -68.5 155.5t-170.5 61.5q-117 0 -182.5 -70.5t-65.5 -191.5v-1057h-193z" />
<glyph unicode="&#xe0;" horiz-adv-x="1044" d="M57 311q0 156 118 248t314 92q168 0 277 -61v43q0 98 -78 166.5t-182 68.5q-158 0 -250 -133l-166 105q138 196 406 196q209 0 329.5 -111.5t120.5 -306.5v-618h-180v139h-8q-117 -172 -312 -172q-166 0 -277.5 98.5t-111.5 245.5zM252 307q0 -74 62.5 -123t146.5 -49 q119 0 212 88t93 207q-88 70 -246 70q-115 0 -191.5 -55.5t-76.5 -137.5zM312 1466h204l107 -262h-164z" />
<glyph unicode="&#xe1;" horiz-adv-x="1044" d="M57 311q0 156 118 248t314 92q168 0 277 -61v43q0 98 -78 166.5t-182 68.5q-158 0 -250 -133l-166 105q138 196 406 196q209 0 329.5 -111.5t120.5 -306.5v-618h-180v139h-8q-117 -172 -312 -172q-166 0 -277.5 98.5t-111.5 245.5zM252 307q0 -74 62.5 -123t146.5 -49 q119 0 212 88t93 207q-88 70 -246 70q-115 0 -191.5 -55.5t-76.5 -137.5zM420 1204l107 262h205l-148 -262h-164z" />
<glyph unicode="&#xe2;" horiz-adv-x="1044" d="M57 311q0 156 118 248t314 92q168 0 277 -61v43q0 98 -78 166.5t-182 68.5q-158 0 -250 -133l-166 105q138 196 406 196q209 0 329.5 -111.5t120.5 -306.5v-618h-180v139h-8q-117 -172 -312 -172q-166 0 -277.5 98.5t-111.5 245.5zM215 1217v10l211 239h164l210 -239v-10 h-182l-102 122h-17l-102 -122h-182zM252 307q0 -74 62.5 -123t146.5 -49q119 0 212 88t93 207q-88 70 -246 70q-115 0 -191.5 -55.5t-76.5 -137.5z" />
<glyph unicode="&#xe3;" horiz-adv-x="1044" d="M57 311q0 156 118 248t314 92q168 0 277 -61v43q0 98 -78 166.5t-182 68.5q-158 0 -250 -133l-166 105q138 196 406 196q209 0 329.5 -111.5t120.5 -306.5v-618h-180v139h-8q-117 -172 -312 -172q-166 0 -277.5 98.5t-111.5 245.5zM187 1239q0 109 66.5 175.5t160.5 66.5 q59 0 166 -62q61 -31 71 -31q63 0 68 72h156q0 -109 -67 -175t-161 -66q-49 0 -136 46t-101 46q-63 0 -68 -72h-155zM252 307q0 -74 62.5 -123t146.5 -49q119 0 212 88t93 207q-88 70 -246 70q-115 0 -191.5 -55.5t-76.5 -137.5z" />
<glyph unicode="&#xe4;" horiz-adv-x="1044" d="M57 311q0 156 118 248t314 92q168 0 277 -61v43q0 98 -78 166.5t-182 68.5q-158 0 -250 -133l-166 105q138 196 406 196q209 0 329.5 -111.5t120.5 -306.5v-618h-180v139h-8q-117 -172 -312 -172q-166 0 -277.5 98.5t-111.5 245.5zM236 1348q0 49 34.5 82.5t82.5 33.5 q51 0 83.5 -32.5t32.5 -83.5q0 -47 -33.5 -82t-82.5 -35q-45 0 -81 36t-36 81zM252 307q0 -74 62.5 -123t146.5 -49q119 0 212 88t93 207q-88 70 -246 70q-115 0 -191.5 -55.5t-76.5 -137.5zM580 1348q0 49 35 82.5t82 33.5q51 0 83.5 -32.5t32.5 -83.5q0 -47 -33.5 -82 t-82.5 -35q-45 0 -81 36t-36 81z" />
<glyph unicode="&#xe5;" horiz-adv-x="1044" d="M57 311q0 156 118 248t314 92q168 0 277 -61v43q0 98 -78 166.5t-182 68.5q-158 0 -250 -133l-166 105q138 196 406 196q209 0 329.5 -111.5t120.5 -306.5v-618h-180v139h-8q-117 -172 -312 -172q-166 0 -277.5 98.5t-111.5 245.5zM252 307q0 -74 62.5 -123t146.5 -49 q119 0 212 88t93 207q-88 70 -246 70q-115 0 -191.5 -55.5t-76.5 -137.5zM314 1368q0 45 16 84t46 67.5t69 45t82 16.5t81.5 -16.5t68.5 -46t46.5 -68.5t16.5 -82t-16.5 -82t-46.5 -68.5t-68.5 -46t-81.5 -16.5t-82 16.5t-69 46t-46 68.5t-16 82zM436 1368q0 -37 27 -64.5 t64 -27.5t63.5 27.5t26.5 64.5t-27 63.5t-63 26.5q-37 0 -64 -26.5t-27 -63.5z" />
<glyph unicode="&#xe6;" horiz-adv-x="1814" d="M57 311q0 156 118 248t314 92q180 0 285 -61v43q0 98 -76.5 166.5t-181.5 68.5q-166 0 -242 -141l-172 84q117 225 406 225q125 0 224 -53t155 -152q137 205 383 205q223 0 355 -144t132 -405l-2 -20h-792q4 -145 99 -236.5t228 -91.5q180 0 283 180l168 -81 q-68 -127 -187.5 -199t-271.5 -72q-133 0 -240.5 59.5t-173.5 170.5q-139 -229 -422 -230q-166 0 -277.5 98.5t-111.5 245.5zM252 307q0 -74 62.5 -123t146.5 -49q121 0 217 89t96 206q-41 31 -121 51q-59 18 -133 19q-115 0 -191.5 -55.5t-76.5 -137.5zM977 623h579 q-8 104 -84.5 172.5t-205.5 68.5q-106 0 -186 -66t-103 -175z" />
<glyph unicode="&#xe7;" horiz-adv-x="1069" d="M57 502q0 231 146 383q147 152 370 151q154 0 268.5 -76.5t172.5 -211.5l-172 -72q-80 188 -281 188q-129 0 -223 -104q-92 -104 -92 -258t92 -258q94 -104 223 -105q207 0 291 189l168 -72q-53 -131 -166 -208t-266 -81l-29 -65l41 4q78 0 132 -55.5t54 -139.5 q0 -82 -59 -139t-147 -57q-63 0 -116.5 37.5t-76.5 99.5l107 47q20 -70 86 -70q37 0 60.5 23.5t23.5 58.5q0 37 -24 61.5t-60 24.5q-41 0 -68 -33l-96 46l61 165q-188 35 -305 179q-115 145 -115 348z" />
<glyph unicode="&#xe8;" horiz-adv-x="1097" d="M57 502q0 229 139.5 381.5t356.5 152.5q223 0 355 -144t132 -405l-2 -20h-788q4 -147 98 -237.5t225 -90.5q180 0 283 180l168 -81q-68 -127 -187.5 -199t-271.5 -72q-221 0 -364.5 151.5t-143.5 383.5zM264 623h576q-8 104 -85 172.5t-206 68.5q-106 0 -183 -65 t-102 -176zM326 1466h204l107 -262h-164z" />
<glyph unicode="&#xe9;" horiz-adv-x="1097" d="M57 502q0 229 139.5 381.5t356.5 152.5q223 0 355 -144t132 -405l-2 -20h-788q4 -147 98 -237.5t225 -90.5q180 0 283 180l168 -81q-68 -127 -187.5 -199t-271.5 -72q-221 0 -364.5 151.5t-143.5 383.5zM264 623h576q-8 104 -85 172.5t-206 68.5q-106 0 -183 -65 t-102 -176zM450 1204l107 262h205l-148 -262h-164z" />
<glyph unicode="&#xea;" horiz-adv-x="1097" d="M57 502q0 229 139.5 381.5t356.5 152.5q223 0 355 -144t132 -405l-2 -20h-788q4 -147 98 -237.5t225 -90.5q180 0 283 180l168 -81q-68 -127 -187.5 -199t-271.5 -72q-221 0 -364.5 151.5t-143.5 383.5zM262 1197v10l211 239h164l210 -239v-10h-182l-102 122h-17 l-102 -122h-182zM264 623h576q-8 104 -85 172.5t-206 68.5q-106 0 -183 -65t-102 -176z" />
<glyph unicode="&#xeb;" horiz-adv-x="1097" d="M57 502q0 229 139.5 381.5t356.5 152.5q223 0 355 -144t132 -405l-2 -20h-788q4 -147 98 -237.5t225 -90.5q180 0 283 180l168 -81q-68 -127 -187.5 -199t-271.5 -72q-221 0 -364.5 151.5t-143.5 383.5zM256 1348q0 49 34.5 82.5t82.5 33.5q51 0 83.5 -32.5t32.5 -83.5 q0 -47 -33.5 -82t-82.5 -35q-45 0 -81 36t-36 81zM264 623h576q-8 104 -85 172.5t-206 68.5q-106 0 -183 -65t-102 -176zM600 1348q0 49 35 82.5t82 33.5q51 0 83.5 -32.5t32.5 -83.5q0 -47 -33.5 -82t-82.5 -35q-45 0 -81 36t-36 81z" />
<glyph unicode="&#xec;" horiz-adv-x="450" d="M0 1466h204l107 -262h-164zM131 0v1004h188v-1004h-188z" />
<glyph unicode="&#xed;" horiz-adv-x="450" d="M131 0v1004h188v-1004h-188zM139 1204l107 262h205l-148 -262h-164z" />
<glyph unicode="&#xee;" horiz-adv-x="450" d="M-67 1217v10l211 239h164l210 -239v-10h-182l-102 122h-17l-102 -122h-182zM131 0v1004h188v-1004h-188z" />
<glyph unicode="&#xef;" horiz-adv-x="450" d="M-31 1350q0 49 35 82.5t82 33.5q51 0 84 -32.5t33 -83.5q0 -47 -34 -82t-83 -35q-45 0 -81 36t-36 81zM131 0v1004h188v-1004h-188zM248 1350q0 49 34.5 82.5t82.5 33.5q51 0 83.5 -32.5t32.5 -83.5q0 -47 -33.5 -82t-82.5 -35q-45 0 -81 36t-36 81z" />
<glyph unicode="&#xf0;" horiz-adv-x="1169" d="M82 475q0 213 143 354t344 142q168 0 258 -97l9 7q-72 162 -195 264l-264 -117l-58 137l177 78q-51 27 -107.5 47.5t-118.5 34.5l64 158q203 -55 350 -158l207 92l57 -135l-137 -61q276 -269 276 -689q0 -252 -139 -409q-137 -156 -364 -156q-207 0 -355 148 q-147 150 -147 360zM274 473q0 -139 88 -233q88 -92 222 -93q131 0 221 93q90 96 90 233t-90 232q-90 92 -217 92q-135 0 -223 -92q-90 -94 -91 -232z" />
<glyph unicode="&#xf1;" d="M115 0v1004h180v-140h8q43 74 132 123t186 49q184 0 283.5 -105.5t99.5 -299.5v-631h-189v618q-6 246 -248 246q-113 0 -188.5 -91t-75.5 -218v-555h-188zM228 1239q0 109 66.5 175.5t160.5 66.5q59 0 166 -62q61 -31 71 -31q63 0 68 72h156q0 -109 -67 -175t-161 -66 q-49 0 -136 46t-101 46q-63 0 -68 -72h-155z" />
<glyph unicode="&#xf2;" horiz-adv-x="1146" d="M57 502q0 231 146 383q147 152 370 151q223 0 369 -151q147 -152 148 -383q0 -233 -148 -383q-145 -152 -369 -152q-223 0 -370 152q-146 152 -146 383zM246 502q0 -162 94 -262t233 -101q139 0 234 101q94 100 94 262q0 160 -94 260q-96 102 -234 102q-137 0 -233 -102 q-94 -100 -94 -260zM334 1466h204l107 -262h-164z" />
<glyph unicode="&#xf3;" horiz-adv-x="1146" d="M57 502q0 231 146 383q147 152 370 151q223 0 369 -151q147 -152 148 -383q0 -233 -148 -383q-145 -152 -369 -152q-223 0 -370 152q-146 152 -146 383zM246 502q0 -162 94 -262t233 -101q139 0 234 101q94 100 94 262q0 160 -94 260q-96 102 -234 102q-137 0 -233 -102 q-94 -100 -94 -260zM483 1204l107 262h205l-148 -262h-164z" />
<glyph unicode="&#xf4;" horiz-adv-x="1146" d="M57 502q0 231 146 383q147 152 370 151q223 0 369 -151q147 -152 148 -383q0 -233 -148 -383q-145 -152 -369 -152q-223 0 -370 152q-146 152 -146 383zM246 502q0 -162 94 -262t233 -101q139 0 234 101q94 100 94 262q0 160 -94 260q-96 102 -234 102q-137 0 -233 -102 q-94 -100 -94 -260zM281 1217v10l211 239h164l210 -239v-10h-182l-102 122h-17l-102 -122h-182z" />
<glyph unicode="&#xf5;" horiz-adv-x="1146" d="M57 502q0 231 146 383q147 152 370 151q223 0 369 -151q147 -152 148 -383q0 -233 -148 -383q-145 -152 -369 -152q-223 0 -370 152q-146 152 -146 383zM230 1239q0 109 66.5 175.5t160.5 66.5q59 0 166 -62q61 -31 71 -31q63 0 68 72h156q0 -109 -67 -175t-161 -66 q-49 0 -136 46t-101 46q-63 0 -68 -72h-155zM246 502q0 -162 94 -262t233 -101q139 0 234 101q94 100 94 262q0 160 -94 260q-96 102 -234 102q-137 0 -233 -102q-94 -100 -94 -260z" />
<glyph unicode="&#xf6;" horiz-adv-x="1146" d="M57 502q0 231 146 383q147 152 370 151q223 0 369 -151q147 -152 148 -383q0 -233 -148 -383q-145 -152 -369 -152q-223 0 -370 152q-146 152 -146 383zM246 502q0 -162 94 -262t233 -101q139 0 234 101q94 100 94 262q0 160 -94 260q-96 102 -234 102q-137 0 -233 -102 q-94 -100 -94 -260zM285 1348q0 49 34.5 82.5t82.5 33.5q51 0 83.5 -32.5t32.5 -83.5q0 -47 -33.5 -82t-82.5 -35q-45 0 -81 36t-36 81zM629 1348q0 49 35 82.5t82 33.5q51 0 83.5 -32.5t32.5 -83.5q0 -47 -33.5 -82t-82.5 -35q-45 0 -81 36t-36 81z" />
<glyph unicode="&#xf7;" horiz-adv-x="1126" d="M115 477v156h897v-156h-897zM424 180q0 59 41 99t98 40q59 0 99 -40t40 -99q0 -57 -39.5 -98t-99.5 -41q-57 0 -98 41t-41 98zM424 930q0 59 41 99t98 40q59 0 99 -40t40 -99q0 -57 -39.5 -98t-99.5 -41q-57 0 -98 40.5t-41 98.5z" />
<glyph unicode="&#xf8;" horiz-adv-x="1146" d="M57 502q0 231 146.5 382.5t369.5 151.5q123 0 226 -49l53 86l119 -69l-58 -91q177 -159 177 -411q0 -231 -146.5 -383t-370.5 -152q-117 0 -219 45l-51 -80l-121 68l56 88q-180 154 -181 414zM246 502q0 -158 90 -256l369 590q-62 28 -132 28q-139 0 -233 -101t-94 -261z M449 166q61 -27 124 -27q139 0 233.5 101.5t94.5 261.5q0 154 -86 252z" />
<glyph unicode="&#xf9;" d="M106 373v631h189v-619q6 -246 248 -246q113 0 188.5 91.5t75.5 218.5v555h188v-1004h-180v139h-8q-43 -74 -132 -123t-186 -49q-184 0 -283.5 105.5t-99.5 300.5zM338 1466h204l107 -262h-164z" />
<glyph unicode="&#xfa;" d="M106 373v631h189v-619q6 -246 248 -246q113 0 188.5 91.5t75.5 218.5v555h188v-1004h-180v139h-8q-43 -74 -132 -123t-186 -49q-184 0 -283.5 105.5t-99.5 300.5zM456 1204l107 262h205l-148 -262h-164z" />
<glyph unicode="&#xfb;" d="M106 373v631h189v-619q6 -246 248 -246q113 0 188.5 91.5t75.5 218.5v555h188v-1004h-180v139h-8q-43 -74 -132 -123t-186 -49q-184 0 -283.5 105.5t-99.5 300.5zM262 1184v10l211 239h164l210 -239v-10h-182l-102 122h-17l-102 -122h-182z" />
<glyph unicode="&#xfc;" d="M106 373v631h189v-619q6 -246 248 -246q113 0 188.5 91.5t75.5 218.5v555h188v-1004h-180v139h-8q-43 -74 -132 -123t-186 -49q-184 0 -283.5 105.5t-99.5 300.5zM271 1350q0 49 34.5 82.5t82.5 33.5q51 0 83.5 -32.5t32.5 -83.5q0 -47 -33.5 -82t-82.5 -35q-45 0 -81 36 t-36 81zM615 1350q0 49 35 82.5t82 33.5q51 0 83.5 -32.5t32.5 -83.5q0 -47 -33.5 -82t-82.5 -35q-45 0 -81 36t-36 81z" />
<glyph unicode="&#xfd;" horiz-adv-x="1019" d="M8 1004h205l299 -721h4l291 721h205l-629 -1446h-195l234 505zM430 1204l107 262h205l-148 -262h-164z" />
<glyph unicode="&#xfe;" horiz-adv-x="1179" d="M115 -442v1908h188v-462l-8 -140h8q49 78 140.5 125t201.5 47q199 0 336 -155q141 -158 141 -379q0 -223 -141 -379q-137 -156 -336 -156q-111 0 -202 47t-140 125h-8l8 -139v-442h-188zM295 502q0 -160 90 -262q92 -101 229 -101q135 0 228 103q92 100 92 260 q0 158 -92 260t-228 102q-137 0 -229 -102q-90 -102 -90 -260z" />
<glyph unicode="&#xff;" horiz-adv-x="1019" d="M8 1004h205l299 -721h4l291 721h205l-629 -1446h-195l234 505zM225 1350q0 49 34.5 82.5t82.5 33.5q51 0 83.5 -32.5t32.5 -83.5q0 -47 -33.5 -82t-82.5 -35q-45 0 -81 36t-36 81zM569 1350q0 49 35 82.5t82 33.5q51 0 83.5 -32.5t32.5 -83.5q0 -47 -33.5 -82t-82.5 -35 q-45 0 -81 36t-36 81z" />
<glyph unicode="&#x152;" horiz-adv-x="2353" d="M76 733q0 326 217 545q217 221 536 221q352 0 562 -260v227h856v-180h-668v-465h602v-176h-602v-465h668v-180h-856v225q-207 -258 -562 -258q-319 0 -536 221q-217 219 -217 545zM268 733q0 -254 160 -420q162 -166 401 -166q240 0 400 166q162 164 162 420t-162 420 q-160 166 -400 166t-401 -166q-160 -166 -160 -420z" />
<glyph unicode="&#x153;" horiz-adv-x="1949" d="M57 502q0 231 146 383q147 152 370 151q137 0 249 -61.5t177 -177.5q63 117 170 178t236 61q111 0 201 -36.5t153.5 -107.5t98 -173.5t34.5 -231.5l-2 -20h-792q4 -145 98 -238q96 -90 229 -90q182 0 283 180l168 -81q-68 -129 -186.5 -200t-272.5 -71q-283 0 -420 240 q-66 -117 -176 -178.5t-248 -61.5q-223 0 -370 152q-145 156 -146 383zM246 502q0 -162 94 -262t233 -101q139 0 234 101q94 100 94 262q0 160 -94 260q-96 102 -234 102q-137 0 -233 -102q-94 -100 -94 -260zM1112 623h580q-8 104 -85 172.5t-206 68.5q-106 0 -186 -65.5 t-103 -175.5z" />
<glyph unicode="&#x2c6;" horiz-adv-x="819" d="M117 1217v10l211 239h164l210 -239v-10h-182l-102 122h-17l-102 -122h-182z" />
<glyph unicode="&#x2dc;" horiz-adv-x="819" d="M66 1237q0 109 66.5 175.5t160.5 66.5q59 0 166 -62q61 -31 71 -31q63 0 68 72h156q0 -109 -67 -175t-161 -66q-49 0 -136 46t-101 46q-63 0 -68 -72h-155z" />
<glyph unicode="&#x2000;" horiz-adv-x="928" />
<glyph unicode="&#x2001;" horiz-adv-x="1856" />
<glyph unicode="&#x2002;" horiz-adv-x="928" />
<glyph unicode="&#x2003;" horiz-adv-x="1856" />
<glyph unicode="&#x2004;" horiz-adv-x="618" />
<glyph unicode="&#x2005;" horiz-adv-x="464" />
<glyph unicode="&#x2006;" horiz-adv-x="309" />
<glyph unicode="&#x2007;" horiz-adv-x="309" />
<glyph unicode="&#x2008;" horiz-adv-x="232" />
<glyph unicode="&#x2009;" horiz-adv-x="371" />
<glyph unicode="&#x200a;" horiz-adv-x="103" />
<glyph unicode="&#x2010;" horiz-adv-x="884" d="M115 557v156h655v-156h-655z" />
<glyph unicode="&#x2011;" horiz-adv-x="884" d="M115 557v156h655v-156h-655z" />
<glyph unicode="&#x2012;" horiz-adv-x="884" d="M115 557v156h655v-156h-655z" />
<glyph unicode="&#x2013;" horiz-adv-x="1212" d="M115 557v156h983v-156h-983z" />
<glyph unicode="&#x2014;" horiz-adv-x="1826" d="M115 557v156h1597v-156h-1597z" />
<glyph unicode="&#x2018;" horiz-adv-x="475" d="M98 1163q0 29 10.5 59.5t32.5 61.5l148 215l88 -57l-103 -156q43 -8 73 -43t30 -84q0 -57 -40 -98t-99 -41q-59 2 -99.5 43t-40.5 100z" />
<glyph unicode="&#x2019;" horiz-adv-x="475" d="M98 1077l103 156q-43 8 -73 43t-30 84q0 59 41 99t99 40q59 0 99 -40t40 -99q0 -57 -43 -125l-148 -215z" />
<glyph unicode="&#x201a;" horiz-adv-x="475" d="M98 127q0 59 41 99t99 40q59 0 99 -40t40 -99q0 -57 -43 -125l-148 -215l-88 57l103 156q-43 8 -73 43t-30 84z" />
<glyph unicode="&#x201c;" horiz-adv-x="835" d="M98 1163q0 29 10.5 59.5t32.5 61.5l148 215l88 -57l-103 -156q43 -8 73 -43t30 -84q0 -57 -40 -98t-99 -41q-59 2 -99.5 43t-40.5 100zM458 1163q0 29 10.5 59.5t32.5 61.5l148 215l88 -57l-103 -156q43 -8 73 -43t30 -84q0 -57 -40 -98t-99 -41q-59 2 -99.5 43 t-40.5 100z" />
<glyph unicode="&#x201d;" horiz-adv-x="835" d="M98 1077l103 156q-43 8 -73 43t-30 84q0 59 41 99t99 40q59 0 99 -40t40 -99q0 -57 -43 -125l-148 -215zM458 1077l103 156q-43 8 -73 43t-30 84q0 59 41 99t99 40q59 0 99 -40t40 -99q0 -57 -43 -125l-148 -215z" />
<glyph unicode="&#x201e;" horiz-adv-x="835" d="M98 127q0 59 41 99t99 40q59 0 99 -40t40 -99q0 -57 -43 -125l-148 -215l-88 57l103 156q-43 8 -73 43t-30 84zM458 127q0 59 41 99t99 40q59 0 99 -40t40 -99q0 -57 -43 -125l-148 -215l-88 57l103 156q-43 8 -73 43t-30 84z" />
<glyph unicode="&#x2022;" horiz-adv-x="819" d="M164 664q0 102 72.5 173.5t173.5 71.5q102 0 173.5 -71.5t71.5 -173.5q0 -100 -71.5 -173t-173.5 -73q-100 0 -173 72.5t-73 173.5z" />
<glyph unicode="&#x2026;" horiz-adv-x="1441" d="M98 127q0 59 41 99t99 40q59 0 99 -40t40 -99q0 -57 -40 -98t-99 -41q-57 0 -98.5 41t-41.5 98zM581 127q0 59 41 99t99 40q59 0 99 -40t40 -99q0 -57 -40 -98t-99 -41q-57 0 -98.5 41t-41.5 98zM1065 127q0 59 41 99t99 40q59 0 99 -40t40 -99q0 -57 -40 -98t-99 -41 q-57 0 -98.5 41t-41.5 98z" />
<glyph unicode="&#x202f;" horiz-adv-x="371" />
<glyph unicode="&#x2039;" horiz-adv-x="729" d="M82 555l414 449l110 -103l-327 -346l327 -346l-110 -103z" />
<glyph unicode="&#x203a;" horiz-adv-x="729" d="M123 209l328 346l-328 346l110 103l414 -449l-414 -449z" />
<glyph unicode="&#x205f;" horiz-adv-x="464" />
<glyph unicode="&#x20ac;" horiz-adv-x="1288" d="M49 459v155h168l-4 86l4 86h-168v156h199q68 225 246 358.5t409 133.5q174 0 305 -84l-90 -154q-98 55 -215 55q-158 0 -279.5 -82t-177.5 -227h457v-156h-493l-4 -86l4 -86h493v-155h-457q55 -145 177 -227t280 -82q135 -1 250 65l86 -164q-143 -84 -336 -84 q-231 0 -409.5 133t-245.5 359h-199z" />
<glyph unicode="&#x25fc;" horiz-adv-x="1003" d="M0 0v1004h1004v-1004h-1004z" />
<glyph unicode="&#xfb01;" horiz-adv-x="1196" d="M49 831v173h189v145q0 74 25.5 135.5t70.5 105.5t107.5 68.5t136.5 24.5q102 0 167 -35l-51 -166q-49 25 -110 25q-70 0 -114 -48.5t-44 -128.5v-126h639v-1004h-188v831h-451v-831h-188v831h-189zM838 1350q0 55 38.5 94t94.5 39q55 0 94 -39t39 -94t-39 -94t-94 -39 t-94 38.5t-39 94.5z" />
<glyph unicode="&#xfb02;" horiz-adv-x="1179" d="M49 831v173h189v133q0 152 98 245t258 93h471v-1475h-188v1303h-283q-168 0 -168 -189v-110h262v-173h-262v-831h-188v831h-189z" />
<glyph unicode="&#xfb03;" horiz-adv-x="1835" d="M49 831v173h189v145q0 74 25.5 135.5t70.5 105.5t107.5 68.5t136.5 24.5q102 0 167 -35l-51 -166q-49 25 -110 25q-70 0 -114 -48.5t-44 -128.5v-126h451v145q0 74 25.5 135.5t70.5 105.5t107.5 68.5t136.5 24.5q102 0 167 -35l-51 -166q-49 25 -110 25q-70 0 -114 -48.5 t-44 -128.5v-126h639v-1004h-188v831h-451v-831h-188v831h-451v-831h-188v831h-189zM1477 1350q0 55 38.5 94t94.5 39q55 0 94 -39t39 -94t-39 -94t-94 -39t-94 38.5t-39 94.5z" />
<glyph unicode="&#xfb04;" horiz-adv-x="1818" d="M49 831v173h189v145q0 150 95 242t245 92q102 0 167 -35l-51 -166q-49 25 -110 25q-70 0 -114 -48.5t-44 -128.5v-126h451v133q0 152 98 245t258 93h471v-1475h-188v1303h-283q-168 0 -168 -189v-110h262v-173h-262v-831h-188v831h-451v-831h-188v831h-189z" />
</font>
</defs>
</svg>
